<mxfile host="app.diagrams.net" agent="Mozilla/5.0 (Windows NT 10.0; Win64; x64) AppleWebKit/537.36 (KHTML, like Gecko) Chrome/137.0.0.0 Safari/537.36" version="27.1.6">
  <diagram name="ページ1" id="wfOfTsYGX1gCWGaTva_v">
    <mxGraphModel dx="1226" dy="620" grid="1" gridSize="10" guides="1" tooltips="1" connect="1" arrows="1" fold="1" page="1" pageScale="1" pageWidth="827" pageHeight="1169" background="#ffffff" math="0" shadow="0">
      <root>
        <mxCell id="0" />
        <mxCell id="1" parent="0" />
        <mxCell id="t017AzWAm3BwNFsJtzHb-52" value="" style="whiteSpace=wrap;html=1;aspect=fixed;fillColor=none;" parent="1" vertex="1">
          <mxGeometry x="670" y="360" width="150" height="150" as="geometry" />
        </mxCell>
        <mxCell id="t017AzWAm3BwNFsJtzHb-72" value="" style="rounded=0;whiteSpace=wrap;html=1;fillColor=none;" parent="1" vertex="1">
          <mxGeometry x="202" y="120" width="558" height="120" as="geometry" />
        </mxCell>
        <mxCell id="t017AzWAm3BwNFsJtzHb-114" style="edgeStyle=orthogonalEdgeStyle;rounded=0;orthogonalLoop=1;jettySize=auto;html=1;entryX=0.5;entryY=0;entryDx=0;entryDy=0;exitX=0.5;exitY=1;exitDx=0;exitDy=0;" parent="1" source="8PP_kPt3Nnjrmp52MOyV-2" edge="1">
          <mxGeometry relative="1" as="geometry">
            <mxPoint x="414" y="90" as="sourcePoint" />
            <mxPoint x="524" y="120" as="targetPoint" />
            <Array as="points">
              <mxPoint x="390" y="100" />
              <mxPoint x="524" y="100" />
            </Array>
          </mxGeometry>
        </mxCell>
        <mxCell id="t017AzWAm3BwNFsJtzHb-115" value="Run" style="edgeLabel;html=1;align=center;verticalAlign=middle;resizable=0;points=[];" parent="t017AzWAm3BwNFsJtzHb-114" vertex="1" connectable="0">
          <mxGeometry x="-0.1333" y="-1" relative="1" as="geometry">
            <mxPoint as="offset" />
          </mxGeometry>
        </mxCell>
        <mxCell id="t017AzWAm3BwNFsJtzHb-60" style="edgeStyle=orthogonalEdgeStyle;rounded=0;orthogonalLoop=1;jettySize=auto;html=1;" parent="1" source="8PP_kPt3Nnjrmp52MOyV-19" edge="1">
          <mxGeometry relative="1" as="geometry">
            <mxPoint x="159.5" y="55.83" as="sourcePoint" />
            <mxPoint x="239.5" y="55.5" as="targetPoint" />
          </mxGeometry>
        </mxCell>
        <mxCell id="t017AzWAm3BwNFsJtzHb-61" value="Push" style="edgeLabel;html=1;align=center;verticalAlign=middle;resizable=0;points=[];" parent="t017AzWAm3BwNFsJtzHb-60" vertex="1" connectable="0">
          <mxGeometry x="0.04" y="2" relative="1" as="geometry">
            <mxPoint x="-1" y="2" as="offset" />
          </mxGeometry>
        </mxCell>
        <mxCell id="t017AzWAm3BwNFsJtzHb-66" style="edgeStyle=orthogonalEdgeStyle;rounded=0;orthogonalLoop=1;jettySize=auto;html=1;" parent="1" source="t017AzWAm3BwNFsJtzHb-9" edge="1">
          <mxGeometry relative="1" as="geometry">
            <mxPoint x="280.25" y="55.83" as="sourcePoint" />
            <mxPoint x="359.75" y="55.5" as="targetPoint" />
          </mxGeometry>
        </mxCell>
        <mxCell id="t017AzWAm3BwNFsJtzHb-67" value="Torriger" style="edgeLabel;html=1;align=center;verticalAlign=middle;resizable=0;points=[];" parent="t017AzWAm3BwNFsJtzHb-66" vertex="1" connectable="0">
          <mxGeometry x="0.0044" y="1" relative="1" as="geometry">
            <mxPoint x="-1" as="offset" />
          </mxGeometry>
        </mxCell>
        <mxCell id="t017AzWAm3BwNFsJtzHb-44" value="" style="shape=image;verticalLabelPosition=bottom;labelBackgroundColor=default;verticalAlign=top;aspect=fixed;imageAspect=0;image=https://serverspec.org/images/logo.png;" parent="1" vertex="1">
          <mxGeometry x="590" y="165" width="130" height="30" as="geometry" />
        </mxCell>
        <mxCell id="t017AzWAm3BwNFsJtzHb-84" value="" style="html=1;shadow=0;dashed=0;align=center;verticalAlign=middle;shape=mxgraph.arrows2.stripedArrow;dy=0.6;dx=40;notch=25;" parent="1" vertex="1">
          <mxGeometry x="480" y="162" width="90" height="36" as="geometry" />
        </mxCell>
        <mxCell id="t017AzWAm3BwNFsJtzHb-113" style="edgeStyle=orthogonalEdgeStyle;rounded=0;orthogonalLoop=1;jettySize=auto;html=1;exitX=0.75;exitY=1;exitDx=0;exitDy=0;entryX=0.5;entryY=0;entryDx=0;entryDy=0;" parent="1" source="t017AzWAm3BwNFsJtzHb-85" target="t017AzWAm3BwNFsJtzHb-52" edge="1">
          <mxGeometry relative="1" as="geometry" />
        </mxCell>
        <mxCell id="t017AzWAm3BwNFsJtzHb-85" value="Ansible" style="shape=rect;fillColor=#EE5396;aspect=fixed;resizable=0;labelPosition=center;verticalLabelPosition=bottom;align=center;verticalAlign=top;strokeColor=none;fontSize=14;" parent="1" vertex="1">
          <mxGeometry x="414" y="159" width="48" height="48" as="geometry" />
        </mxCell>
        <mxCell id="t017AzWAm3BwNFsJtzHb-86" value="" style="fillColor=#ffffff;strokeColor=none;dashed=0;outlineConnect=0;html=1;labelPosition=center;verticalLabelPosition=bottom;verticalAlign=top;part=1;movable=0;resizable=0;rotatable=0;shape=mxgraph.ibm_cloud.logo--ansible-community" parent="t017AzWAm3BwNFsJtzHb-85" vertex="1">
          <mxGeometry width="24" height="24" relative="1" as="geometry">
            <mxPoint x="12" y="12" as="offset" />
          </mxGeometry>
        </mxCell>
        <mxCell id="t017AzWAm3BwNFsJtzHb-121" value="" style="html=1;shadow=0;dashed=0;align=center;verticalAlign=middle;shape=mxgraph.arrows2.stripedArrow;dy=0.6;dx=40;notch=25;" parent="1" vertex="1">
          <mxGeometry x="320" y="159" width="90" height="36" as="geometry" />
        </mxCell>
        <mxCell id="8PP_kPt3Nnjrmp52MOyV-5" style="edgeStyle=orthogonalEdgeStyle;rounded=0;orthogonalLoop=1;jettySize=auto;html=1;exitX=0.5;exitY=1;exitDx=0;exitDy=0;exitPerimeter=0;" edge="1" parent="1" source="8PP_kPt3Nnjrmp52MOyV-4" target="t017AzWAm3BwNFsJtzHb-38">
          <mxGeometry relative="1" as="geometry">
            <Array as="points">
              <mxPoint x="268" y="310" />
              <mxPoint x="110" y="310" />
              <mxPoint x="110" y="520" />
              <mxPoint x="30" y="520" />
            </Array>
          </mxGeometry>
        </mxCell>
        <mxCell id="8PP_kPt3Nnjrmp52MOyV-4" value="" style="sketch=0;points=[[0,0,0],[0.25,0,0],[0.5,0,0],[0.75,0,0],[1,0,0],[0,1,0],[0.25,1,0],[0.5,1,0],[0.75,1,0],[1,1,0],[0,0.25,0],[0,0.5,0],[0,0.75,0],[1,0.25,0],[1,0.5,0],[1,0.75,0]];points=[[0,0,0],[0.25,0,0],[0.5,0,0],[0.75,0,0],[1,0,0],[0,1,0],[0.25,1,0],[0.5,1,0],[0.75,1,0],[1,1,0],[0,0.25,0],[0,0.5,0],[0,0.75,0],[1,0.25,0],[1,0.5,0],[1,0.75,0]];outlineConnect=0;fontColor=#232F3E;fillColor=#E7157B;strokeColor=#ffffff;dashed=0;verticalLabelPosition=bottom;verticalAlign=top;align=center;html=1;fontSize=12;fontStyle=0;aspect=fixed;shape=mxgraph.aws4.resourceIcon;resIcon=mxgraph.aws4.cloudformation;" vertex="1" parent="1">
          <mxGeometry x="242" y="151.5" width="51" height="51" as="geometry" />
        </mxCell>
        <mxCell id="t017AzWAm3BwNFsJtzHb-51" value="" style="shape=image;verticalLabelPosition=bottom;labelBackgroundColor=default;verticalAlign=top;aspect=fixed;imageAspect=0;image=https://git-scm.com/images/logo@2x.png;" parent="1" vertex="1">
          <mxGeometry x="709.13" y="400" width="71.74" height="30" as="geometry" />
        </mxCell>
        <mxCell id="t017AzWAm3BwNFsJtzHb-43" value="" style="shape=image;verticalLabelPosition=bottom;labelBackgroundColor=default;verticalAlign=top;aspect=fixed;imageAspect=0;image=https://cdn.worldvectorlogo.com/logos/nginx-1.svg;" parent="1" vertex="1">
          <mxGeometry x="719.4" y="440" width="51.2" height="40" as="geometry" />
        </mxCell>
        <mxCell id="8PP_kPt3Nnjrmp52MOyV-13" value="" style="edgeStyle=orthogonalEdgeStyle;rounded=0;orthogonalLoop=1;jettySize=auto;html=1;" edge="1" parent="1" target="8PP_kPt3Nnjrmp52MOyV-19">
          <mxGeometry relative="1" as="geometry">
            <mxPoint x="40" y="55.5" as="sourcePoint" />
            <mxPoint x="120" y="55.53" as="targetPoint" />
            <Array as="points" />
          </mxGeometry>
        </mxCell>
        <mxCell id="8PP_kPt3Nnjrmp52MOyV-14" value="Develop" style="edgeLabel;html=1;align=center;verticalAlign=middle;resizable=0;points=[];" vertex="1" connectable="0" parent="8PP_kPt3Nnjrmp52MOyV-13">
          <mxGeometry x="-0.0978" relative="1" as="geometry">
            <mxPoint as="offset" />
          </mxGeometry>
        </mxCell>
        <mxCell id="8PP_kPt3Nnjrmp52MOyV-11" value="Users" style="sketch=0;outlineConnect=0;fontColor=#232F3E;gradientColor=none;strokeColor=#232F3E;fillColor=#ffffff;dashed=0;verticalLabelPosition=bottom;verticalAlign=top;align=center;html=1;fontSize=12;fontStyle=0;aspect=fixed;shape=mxgraph.aws4.resourceIcon;resIcon=mxgraph.aws4.users;" vertex="1" parent="1">
          <mxGeometry y="36" width="40" height="40" as="geometry" />
        </mxCell>
        <mxCell id="8PP_kPt3Nnjrmp52MOyV-19" value="" style="shape=image;verticalLabelPosition=bottom;labelBackgroundColor=default;verticalAlign=top;aspect=fixed;imageAspect=0;editableCssRules=.*;image=data:image/svg+xml,PHN2ZyB4bWxucz0iaHR0cDovL3d3dy53My5vcmcvMjAwMC9zdmciIGhlaWdodD0iNDAiIHdpZHRoPSIzOS45ODU3NTk3MzUxMDc0MiIgdmlld0JveD0iNC4wMTQyMzkzMTEyMTgyNjIgNCAzOS45ODU3NTk3MzUxMDc0MiA0MCI+PGxpbmVhckdyYWRpZW50IGdyYWRpZW50VW5pdHM9InVzZXJTcGFjZU9uVXNlIiB5Mj0iNy40MiIgeTE9IjQzLjM3IiB4Mj0iMzcuOCIgeDE9IjM3LjgiIGlkPSJIakJVRkh5TnRjc0RjQmduWkJaMlNhIj48c3RvcCBzdG9wLWNvbG9yPSIjMjliNmY2IiBvZmZzZXQ9IjAiLz48c3RvcCBzdG9wLWNvbG9yPSIjMTNiMmY2IiBvZmZzZXQ9IjEiLz48L2xpbmVhckdyYWRpZW50PjxwYXRoIGQ9Ik0zNC4xNzYsNC4yNDljMC4xODgsMC4wOTIsNS42ODgsMi43MTYsOC4zNzQsMy45OThDNDMuNDM3LDguNjcsNDQsOS41NjQsNDQsMTAuNTQ2djI2Ljg2JiM5O2MwLDAuOTgxLTAuNTU5LDEuODc0LTEuNDQzLDIuMjk5Yy0yLjU0OCwxLjIyOC03LjYxMSwzLjY2Ni03Ljk0OCwzLjgyNkMzNC4zNjEsNDMuNjQ5LDMzLjcwOSw0NCwzMy4xODEsNDQmIzk7Yy0wLjY3OCwwLTEuMTMzLTAuMzE2LTEuNTgtMC43M0wzNCwzNS43MTFWNS43MTVsLTIuMjU0LTEuMTM1QzMyLjIyOCw0LjEwOSwzMi44OTYsNCwzMy4yOTEsNEMzMy42NTMsNCwzMy45NDgsNC4xMzgsMzQuMTc2LDQuMjQ5eiIgZmlsbD0idXJsKCNIakJVRkh5TnRjc0RjQmduWkJaMlNhKSIvPjxsaW5lYXJHcmFkaWVudCBncmFkaWVudFVuaXRzPSJ1c2VyU3BhY2VPblVzZSIgeTI9IjcuMTczIiB5MT0iMzQuODAxIiB4Mj0iMzQuNzkzIiB4MT0iNi4wODUiIGlkPSJIakJVRkh5TnRjc0RjQmduWkJaMlNiIj48c3RvcCBzdG9wLWNvbG9yPSIjMDA3NmJiIiBvZmZzZXQ9Ii4xMTUiLz48c3RvcCBzdG9wLWNvbG9yPSIjMDA2OWIwIiBvZmZzZXQ9Ii4yNTciLz48c3RvcCBzdG9wLWNvbG9yPSIjMDA2OWIwIiBvZmZzZXQ9Ii4yOCIvPjxzdG9wIHN0b3AtY29sb3I9IiMwMDY5YjAiIG9mZnNldD0iLjQyNCIvPjxzdG9wIHN0b3AtY29sb3I9IiMwMDcyYjciIG9mZnNldD0iLjQ5MSIvPjxzdG9wIHN0b3AtY29sb3I9IiMwMDc2YmIiIG9mZnNldD0iLjU3NyIvPjxzdG9wIHN0b3AtY29sb3I9IiMwMDc2YmIiIG9mZnNldD0iLjc5NSIvPjxzdG9wIHN0b3AtY29sb3I9IiMwMDZlYjkiIG9mZnNldD0iMSIvPjwvbGluZWFyR3JhZGllbnQ+PHBhdGggZD0iTTksMzMuODk2bDI1LTE5LjAyM1Y1LjgzYzAtMS4yOTktMS42NjItMS44MDgtMi4zMzctMS4xODQmIzk7QzMxLjAwOCw1LjI1LDQuNjU4LDI5LjIzOSw0LjY1OCwyOS4yMzljLTAuOSwwLjgzLTAuODQ5LDIuMjY3LDAuMTA3LDMuMDMyYzAsMCwxLjMyNCwxLjIzMiwxLjgwMywxLjU3NCYjOTtDNy4zMDQsMzQuMzcsOC4yNzEsMzQuNDMsOSwzMy44OTZ6IiBmaWxsPSJ1cmwoI0hqQlVGSHlOdGNzRGNCZ25aQloyU2IpIi8+PHBhdGggZD0iTTksMTQuMTA0bDI1LDE5LjA1NHY4Ljc3MWMwLDEuMTk4LTEuNDIsMi4xOTMtMi4zOTksMS4zNDFMNC42NTgsMTguNzYxJiM5O2MtMC45LTAuODMtMC44NDktMi4yNjcsMC4xMDctMy4wMzJjMCwwLDEuMzI0LTEuMjMyLDEuODAzLTEuNTc0QzcuMzA0LDEzLjYzLDguMjcxLDEzLjU3LDksMTQuMTA0eiIgZmlsbD0iIzAyODhkMSIvPjwvc3ZnPg==;" vertex="1" parent="1">
          <mxGeometry x="120" y="36" width="40" height="40" as="geometry" />
        </mxCell>
        <mxCell id="t017AzWAm3BwNFsJtzHb-9" value="" style="shape=image;html=1;verticalAlign=top;verticalLabelPosition=bottom;labelBackgroundColor=#ffffff;imageAspect=0;aspect=fixed;image=https://cdn4.iconfinder.com/data/icons/ionicons/512/icon-social-github-128.png" parent="1" vertex="1">
          <mxGeometry x="240.5" y="36" width="40" height="40" as="geometry" />
        </mxCell>
        <mxCell id="8PP_kPt3Nnjrmp52MOyV-2" value="" style="shape=image;imageAspect=0;aspect=fixed;verticalLabelPosition=bottom;verticalAlign=top;image=https://prtimes.jp/data/corp/45056/tmp-74ea7a8a47b8ec46276d4d98dfc48039-f3c54867c53badc1224fcd4ed81a270b.jpg?auto=avif;" vertex="1" parent="1">
          <mxGeometry x="360" y="36" width="60.49" height="59.33" as="geometry" />
        </mxCell>
        <mxCell id="8PP_kPt3Nnjrmp52MOyV-38" value="" style="group" vertex="1" connectable="0" parent="1">
          <mxGeometry x="20" y="320" width="640" height="530" as="geometry" />
        </mxCell>
        <mxCell id="8PP_kPt3Nnjrmp52MOyV-8" value="Tokyo Region" style="points=[[0,0],[0.25,0],[0.5,0],[0.75,0],[1,0],[1,0.25],[1,0.5],[1,0.75],[1,1],[0.75,1],[0.5,1],[0.25,1],[0,1],[0,0.75],[0,0.5],[0,0.25]];outlineConnect=0;gradientColor=none;html=1;whiteSpace=wrap;fontSize=12;fontStyle=0;container=1;pointerEvents=0;collapsible=0;recursiveResize=0;shape=mxgraph.aws4.group;grIcon=mxgraph.aws4.group_region;strokeColor=#00A4A6;fillColor=none;verticalAlign=top;align=left;spacingLeft=30;fontColor=#147EBA;dashed=1;" vertex="1" parent="8PP_kPt3Nnjrmp52MOyV-38">
          <mxGeometry width="640" height="530" as="geometry" />
        </mxCell>
        <mxCell id="t017AzWAm3BwNFsJtzHb-14" value="" style="sketch=0;points=[[0,0,0],[0.25,0,0],[0.5,0,0],[0.75,0,0],[1,0,0],[0,1,0],[0.25,1,0],[0.5,1,0],[0.75,1,0],[1,1,0],[0,0.25,0],[0,0.5,0],[0,0.75,0],[1,0.25,0],[1,0.5,0],[1,0.75,0]];outlineConnect=0;fontColor=#232F3E;fillColor=#7AA116;strokeColor=#ffffff;dashed=0;verticalLabelPosition=bottom;verticalAlign=top;align=center;html=1;fontSize=12;fontStyle=0;aspect=fixed;shape=mxgraph.aws4.resourceIcon;resIcon=mxgraph.aws4.s3;container=0;" parent="8PP_kPt3Nnjrmp52MOyV-8" vertex="1">
          <mxGeometry x="120" width="40" height="40" as="geometry" />
        </mxCell>
        <mxCell id="t017AzWAm3BwNFsJtzHb-15" value="&lt;div style=&quot;color: rgb(0, 0, 0); background-color: rgb(255, 255, 255); font-family: Consolas, &amp;quot;Courier New&amp;quot;, monospace; line-height: 19px; white-space: pre;&quot;&gt;&lt;span style=&quot;color: rgb(0, 0, 255);&quot;&gt;&lt;font style=&quot;font-size: 10px;&quot;&gt;AZ ap-northeast-1d&lt;/font&gt;&lt;/span&gt;&lt;/div&gt;" style="fillColor=none;strokeColor=#147EBA;dashed=1;verticalAlign=top;fontStyle=0;fontColor=#147EBA;whiteSpace=wrap;html=1;container=0;" parent="8PP_kPt3Nnjrmp52MOyV-38" vertex="1">
          <mxGeometry x="160" y="250" width="401" height="161" as="geometry" />
        </mxCell>
        <mxCell id="t017AzWAm3BwNFsJtzHb-16" value="VPC" style="points=[[0,0],[0.25,0],[0.5,0],[0.75,0],[1,0],[1,0.25],[1,0.5],[1,0.75],[1,1],[0.75,1],[0.5,1],[0.25,1],[0,1],[0,0.75],[0,0.5],[0,0.25]];outlineConnect=0;gradientColor=none;html=1;whiteSpace=wrap;fontSize=12;fontStyle=0;container=0;pointerEvents=0;collapsible=0;recursiveResize=0;shape=mxgraph.aws4.group;grIcon=mxgraph.aws4.group_vpc2;strokeColor=#8C4FFF;fillColor=none;verticalAlign=top;align=left;spacingLeft=30;fontColor=#AAB7B8;dashed=0;" parent="8PP_kPt3Nnjrmp52MOyV-38" vertex="1">
          <mxGeometry x="40" y="40" width="560" height="470" as="geometry" />
        </mxCell>
        <mxCell id="t017AzWAm3BwNFsJtzHb-28" value="&lt;div style=&quot;color: rgb(0, 0, 0); background-color: rgb(255, 255, 255); font-family: Consolas, &amp;quot;Courier New&amp;quot;, monospace; line-height: 19px; white-space: pre;&quot;&gt;&lt;span style=&quot;color: rgb(0, 0, 255);&quot;&gt;&lt;font style=&quot;font-size: 10px;&quot;&gt;AZ ap-northeast-1a&lt;/font&gt;&lt;/span&gt;&lt;/div&gt;" style="fillColor=none;strokeColor=#147EBA;dashed=1;verticalAlign=top;fontStyle=0;fontColor=#147EBA;whiteSpace=wrap;html=1;container=0;" parent="8PP_kPt3Nnjrmp52MOyV-38" vertex="1">
          <mxGeometry x="160" y="71" width="400" height="170" as="geometry" />
        </mxCell>
        <mxCell id="t017AzWAm3BwNFsJtzHb-18" value="Public subnet01" style="points=[[0,0],[0.25,0],[0.5,0],[0.75,0],[1,0],[1,0.25],[1,0.5],[1,0.75],[1,1],[0.75,1],[0.5,1],[0.25,1],[0,1],[0,0.75],[0,0.5],[0,0.25]];outlineConnect=0;gradientColor=none;html=1;whiteSpace=wrap;fontSize=12;fontStyle=0;container=0;pointerEvents=0;collapsible=0;recursiveResize=0;shape=mxgraph.aws4.group;grIcon=mxgraph.aws4.group_security_group;grStroke=0;strokeColor=#7AA116;fillColor=#F2F6E8;verticalAlign=top;align=left;spacingLeft=30;fontColor=#248814;dashed=0;" parent="8PP_kPt3Nnjrmp52MOyV-38" vertex="1">
          <mxGeometry x="200" y="120" width="120" height="120" as="geometry" />
        </mxCell>
        <mxCell id="t017AzWAm3BwNFsJtzHb-25" value="&lt;div style=&quot;color: rgb(0, 0, 0); background-color: rgb(255, 255, 255); font-family: Consolas, &amp;quot;Courier New&amp;quot;, monospace; line-height: 19px; white-space: pre;&quot;&gt;&lt;span style=&quot;color: rgb(0, 0, 255);&quot;&gt;&lt;font style=&quot;font-size: 10px;&quot;&gt;TEST-RouteTable1&lt;/font&gt;&lt;/span&gt;&lt;/div&gt;" style="fillColor=none;strokeColor=#5A6C86;dashed=1;verticalAlign=top;fontStyle=0;fontColor=#5A6C86;whiteSpace=wrap;html=1;container=0;" parent="8PP_kPt3Nnjrmp52MOyV-38" vertex="1">
          <mxGeometry x="182.5" y="97.5" width="157.5" height="352.5" as="geometry" />
        </mxCell>
        <mxCell id="t017AzWAm3BwNFsJtzHb-27" value="&lt;div style=&quot;color: rgb(0, 0, 0); background-color: rgb(255, 255, 255); font-family: Consolas, &amp;quot;Courier New&amp;quot;, monospace; line-height: 19px; white-space: pre;&quot;&gt;&lt;span style=&quot;color: rgb(0, 0, 255);&quot;&gt;&lt;font style=&quot;font-size: 10px;&quot;&gt;TEST-RouteTable2&lt;/font&gt;&lt;/span&gt;&lt;/div&gt;" style="fillColor=none;strokeColor=#5A6C86;dashed=1;verticalAlign=top;fontStyle=0;fontColor=#5A6C86;whiteSpace=wrap;html=1;container=0;" parent="8PP_kPt3Nnjrmp52MOyV-38" vertex="1">
          <mxGeometry x="381.25" y="96.5" width="157.5" height="352.5" as="geometry" />
        </mxCell>
        <mxCell id="8PP_kPt3Nnjrmp52MOyV-37" style="edgeStyle=orthogonalEdgeStyle;rounded=0;orthogonalLoop=1;jettySize=auto;html=1;exitX=0;exitY=0.5;exitDx=0;exitDy=0;exitPerimeter=0;" edge="1" parent="8PP_kPt3Nnjrmp52MOyV-38" source="s2tJj15P_GMWW8lzr4WI-2">
          <mxGeometry relative="1" as="geometry">
            <mxPoint x="140" y="40" as="targetPoint" />
          </mxGeometry>
        </mxCell>
        <mxCell id="s2tJj15P_GMWW8lzr4WI-2" value="" style="sketch=0;points=[[0,0,0],[0.25,0,0],[0.5,0,0],[0.75,0,0],[1,0,0],[0,1,0],[0.25,1,0],[0.5,1,0],[0.75,1,0],[1,1,0],[0,0.25,0],[0,0.5,0],[0,0.75,0],[1,0.25,0],[1,0.5,0],[1,0.75,0]];outlineConnect=0;fontColor=#232F3E;fillColor=#ED7100;strokeColor=#ffffff;dashed=0;verticalLabelPosition=bottom;verticalAlign=top;align=center;html=1;fontSize=12;fontStyle=0;aspect=fixed;shape=mxgraph.aws4.resourceIcon;resIcon=mxgraph.aws4.ec2;container=0;" parent="8PP_kPt3Nnjrmp52MOyV-38" vertex="1">
          <mxGeometry x="239.5" y="169" width="41" height="41" as="geometry" />
        </mxCell>
        <mxCell id="t017AzWAm3BwNFsJtzHb-30" value="Private subnet02" style="points=[[0,0],[0.25,0],[0.5,0],[0.75,0],[1,0],[1,0.25],[1,0.5],[1,0.75],[1,1],[0.75,1],[0.5,1],[0.25,1],[0,1],[0,0.75],[0,0.5],[0,0.25]];outlineConnect=0;gradientColor=none;html=1;whiteSpace=wrap;fontSize=12;fontStyle=0;container=0;pointerEvents=0;collapsible=0;recursiveResize=0;shape=mxgraph.aws4.group;grIcon=mxgraph.aws4.group_security_group;grStroke=0;strokeColor=#00A4A6;fillColor=#E6F6F7;verticalAlign=top;align=left;spacingLeft=30;fontColor=#147EBA;dashed=0;" parent="8PP_kPt3Nnjrmp52MOyV-38" vertex="1">
          <mxGeometry x="400.49" y="280" width="120" height="120" as="geometry" />
        </mxCell>
        <mxCell id="t017AzWAm3BwNFsJtzHb-13" value="" style="sketch=0;points=[[0,0,0],[0.25,0,0],[0.5,0,0],[0.75,0,0],[1,0,0],[0,1,0],[0.25,1,0],[0.5,1,0],[0.75,1,0],[1,1,0],[0,0.25,0],[0,0.5,0],[0,0.75,0],[1,0.25,0],[1,0.5,0],[1,0.75,0]];outlineConnect=0;fontColor=#232F3E;fillColor=#C925D1;strokeColor=#ffffff;dashed=0;verticalLabelPosition=bottom;verticalAlign=top;align=center;html=1;fontSize=12;fontStyle=0;aspect=fixed;shape=mxgraph.aws4.resourceIcon;resIcon=mxgraph.aws4.rds;container=0;" parent="8PP_kPt3Nnjrmp52MOyV-38" vertex="1">
          <mxGeometry x="440" y="330" width="40" height="40" as="geometry" />
        </mxCell>
        <mxCell id="t017AzWAm3BwNFsJtzHb-93" value="" style="endArrow=classic;startArrow=classic;html=1;rounded=0;exitX=0.009;exitY=0.603;exitDx=0;exitDy=0;exitPerimeter=0;" parent="8PP_kPt3Nnjrmp52MOyV-38" edge="1" target="t017AzWAm3BwNFsJtzHb-38" source="8PP_kPt3Nnjrmp52MOyV-15">
          <mxGeometry width="50" height="50" relative="1" as="geometry">
            <mxPoint x="130" y="264" as="sourcePoint" />
            <mxPoint x="70" y="264" as="targetPoint" />
            <Array as="points" />
          </mxGeometry>
        </mxCell>
        <mxCell id="t017AzWAm3BwNFsJtzHb-29" value="Public subnet02" style="points=[[0,0],[0.25,0],[0.5,0],[0.75,0],[1,0],[1,0.25],[1,0.5],[1,0.75],[1,1],[0.75,1],[0.5,1],[0.25,1],[0,1],[0,0.75],[0,0.5],[0,0.25]];outlineConnect=0;gradientColor=none;html=1;whiteSpace=wrap;fontSize=12;fontStyle=0;container=0;pointerEvents=0;collapsible=0;recursiveResize=0;shape=mxgraph.aws4.group;grIcon=mxgraph.aws4.group_security_group;grStroke=0;strokeColor=#7AA116;fillColor=#F2F6E8;verticalAlign=top;align=left;spacingLeft=30;fontColor=#248814;dashed=0;" parent="8PP_kPt3Nnjrmp52MOyV-38" vertex="1">
          <mxGeometry x="202" y="280" width="120" height="120" as="geometry" />
        </mxCell>
        <mxCell id="8PP_kPt3Nnjrmp52MOyV-29" style="edgeStyle=orthogonalEdgeStyle;rounded=0;orthogonalLoop=1;jettySize=auto;html=1;" edge="1" parent="8PP_kPt3Nnjrmp52MOyV-38" source="t017AzWAm3BwNFsJtzHb-10">
          <mxGeometry relative="1" as="geometry">
            <mxPoint x="130" y="40" as="targetPoint" />
            <mxPoint x="220" y="340" as="sourcePoint" />
            <Array as="points">
              <mxPoint x="130" y="350" />
            </Array>
          </mxGeometry>
        </mxCell>
        <mxCell id="8PP_kPt3Nnjrmp52MOyV-33" style="edgeStyle=orthogonalEdgeStyle;rounded=0;orthogonalLoop=1;jettySize=auto;html=1;exitX=1;exitY=0.5;exitDx=0;exitDy=0;exitPerimeter=0;" edge="1" parent="8PP_kPt3Nnjrmp52MOyV-38" source="t017AzWAm3BwNFsJtzHb-10" target="t017AzWAm3BwNFsJtzHb-13">
          <mxGeometry relative="1" as="geometry" />
        </mxCell>
        <mxCell id="t017AzWAm3BwNFsJtzHb-10" value="" style="sketch=0;points=[[0,0,0],[0.25,0,0],[0.5,0,0],[0.75,0,0],[1,0,0],[0,1,0],[0.25,1,0],[0.5,1,0],[0.75,1,0],[1,1,0],[0,0.25,0],[0,0.5,0],[0,0.75,0],[1,0.25,0],[1,0.5,0],[1,0.75,0]];outlineConnect=0;fontColor=#232F3E;fillColor=#ED7100;strokeColor=#ffffff;dashed=0;verticalLabelPosition=bottom;verticalAlign=top;align=center;html=1;fontSize=12;fontStyle=0;aspect=fixed;shape=mxgraph.aws4.resourceIcon;resIcon=mxgraph.aws4.ec2;container=0;" parent="8PP_kPt3Nnjrmp52MOyV-38" vertex="1">
          <mxGeometry x="253" y="330" width="40" height="40" as="geometry" />
        </mxCell>
        <mxCell id="t017AzWAm3BwNFsJtzHb-17" value="Private subnet01" style="points=[[0,0],[0.25,0],[0.5,0],[0.75,0],[1,0],[1,0.25],[1,0.5],[1,0.75],[1,1],[0.75,1],[0.5,1],[0.25,1],[0,1],[0,0.75],[0,0.5],[0,0.25]];outlineConnect=0;gradientColor=none;html=1;whiteSpace=wrap;fontSize=12;fontStyle=0;container=0;pointerEvents=0;collapsible=0;recursiveResize=0;shape=mxgraph.aws4.group;grIcon=mxgraph.aws4.group_security_group;grStroke=0;strokeColor=#00A4A6;fillColor=#E6F6F7;verticalAlign=top;align=left;spacingLeft=30;fontColor=#147EBA;dashed=0;" parent="8PP_kPt3Nnjrmp52MOyV-38" vertex="1">
          <mxGeometry x="400" y="120" width="120" height="120" as="geometry" />
        </mxCell>
        <mxCell id="t017AzWAm3BwNFsJtzHb-11" value="" style="sketch=0;points=[[0,0,0],[0.25,0,0],[0.5,0,0],[0.75,0,0],[1,0,0],[0,1,0],[0.25,1,0],[0.5,1,0],[0.75,1,0],[1,1,0],[0,0.25,0],[0,0.5,0],[0,0.75,0],[1,0.25,0],[1,0.5,0],[1,0.75,0]];outlineConnect=0;fontColor=#232F3E;fillColor=#C925D1;strokeColor=#ffffff;dashed=0;verticalLabelPosition=bottom;verticalAlign=top;align=center;html=1;fontSize=12;fontStyle=0;aspect=fixed;shape=mxgraph.aws4.resourceIcon;resIcon=mxgraph.aws4.rds;container=0;" parent="8PP_kPt3Nnjrmp52MOyV-38" vertex="1">
          <mxGeometry x="440" y="169" width="40" height="40" as="geometry" />
        </mxCell>
        <mxCell id="8PP_kPt3Nnjrmp52MOyV-16" value="" style="group" vertex="1" connectable="0" parent="8PP_kPt3Nnjrmp52MOyV-38">
          <mxGeometry x="223" y="220" width="70" height="72.25" as="geometry" />
        </mxCell>
        <mxCell id="8PP_kPt3Nnjrmp52MOyV-15" value="" style="fillColor=none;strokeColor=#5A6C86;dashed=1;verticalAlign=top;fontStyle=0;fontColor=#5A6C86;whiteSpace=wrap;html=1;" vertex="1" parent="8PP_kPt3Nnjrmp52MOyV-16">
          <mxGeometry width="70" height="72.25" as="geometry" />
        </mxCell>
        <mxCell id="t017AzWAm3BwNFsJtzHb-47" value="" style="sketch=0;outlineConnect=0;fontColor=#232F3E;gradientColor=none;fillColor=#8C4FFF;strokeColor=none;dashed=0;verticalLabelPosition=bottom;verticalAlign=top;align=center;html=1;fontSize=12;fontStyle=0;aspect=fixed;pointerEvents=1;shape=mxgraph.aws4.application_load_balancer;container=0;" parent="8PP_kPt3Nnjrmp52MOyV-16" vertex="1">
          <mxGeometry x="12.5" y="13.620000000000005" width="45" height="45" as="geometry" />
        </mxCell>
        <mxCell id="8PP_kPt3Nnjrmp52MOyV-32" style="edgeStyle=orthogonalEdgeStyle;rounded=0;orthogonalLoop=1;jettySize=auto;html=1;exitX=0.5;exitY=1;exitDx=0;exitDy=0;exitPerimeter=0;entryX=0;entryY=0.5;entryDx=0;entryDy=0;entryPerimeter=0;" edge="1" parent="8PP_kPt3Nnjrmp52MOyV-38" source="t017AzWAm3BwNFsJtzHb-14" target="s2tJj15P_GMWW8lzr4WI-2">
          <mxGeometry relative="1" as="geometry" />
        </mxCell>
        <mxCell id="8PP_kPt3Nnjrmp52MOyV-34" style="edgeStyle=orthogonalEdgeStyle;rounded=0;orthogonalLoop=1;jettySize=auto;html=1;exitX=0;exitY=0.5;exitDx=0;exitDy=0;exitPerimeter=0;entryX=1;entryY=0.5;entryDx=0;entryDy=0;entryPerimeter=0;" edge="1" parent="8PP_kPt3Nnjrmp52MOyV-38" source="t017AzWAm3BwNFsJtzHb-13" target="t017AzWAm3BwNFsJtzHb-10">
          <mxGeometry relative="1" as="geometry" />
        </mxCell>
        <mxCell id="8PP_kPt3Nnjrmp52MOyV-35" style="edgeStyle=orthogonalEdgeStyle;rounded=0;orthogonalLoop=1;jettySize=auto;html=1;exitX=1;exitY=0.5;exitDx=0;exitDy=0;exitPerimeter=0;entryX=0;entryY=0.5;entryDx=0;entryDy=0;entryPerimeter=0;" edge="1" parent="8PP_kPt3Nnjrmp52MOyV-38" source="s2tJj15P_GMWW8lzr4WI-2" target="t017AzWAm3BwNFsJtzHb-11">
          <mxGeometry relative="1" as="geometry" />
        </mxCell>
        <mxCell id="8PP_kPt3Nnjrmp52MOyV-36" style="edgeStyle=orthogonalEdgeStyle;rounded=0;orthogonalLoop=1;jettySize=auto;html=1;exitX=0;exitY=0.5;exitDx=0;exitDy=0;exitPerimeter=0;entryX=1;entryY=0.5;entryDx=0;entryDy=0;entryPerimeter=0;" edge="1" parent="8PP_kPt3Nnjrmp52MOyV-38" source="t017AzWAm3BwNFsJtzHb-11" target="s2tJj15P_GMWW8lzr4WI-2">
          <mxGeometry relative="1" as="geometry" />
        </mxCell>
        <mxCell id="t017AzWAm3BwNFsJtzHb-38" value="" style="sketch=0;outlineConnect=0;fontColor=#232F3E;gradientColor=none;fillColor=#8C4FFF;strokeColor=none;dashed=0;verticalLabelPosition=bottom;verticalAlign=top;align=center;html=1;fontSize=12;fontStyle=0;aspect=fixed;pointerEvents=1;shape=mxgraph.aws4.internet_gateway;container=0;" parent="8PP_kPt3Nnjrmp52MOyV-38" vertex="1">
          <mxGeometry x="20" y="245" width="40" height="40" as="geometry" />
        </mxCell>
        <mxCell id="8PP_kPt3Nnjrmp52MOyV-41" style="edgeStyle=orthogonalEdgeStyle;rounded=0;orthogonalLoop=1;jettySize=auto;html=1;exitX=0.25;exitY=1;exitDx=0;exitDy=0;exitPerimeter=0;entryX=0;entryY=0.5;entryDx=0;entryDy=0;entryPerimeter=0;" edge="1" parent="8PP_kPt3Nnjrmp52MOyV-38" source="t017AzWAm3BwNFsJtzHb-14" target="t017AzWAm3BwNFsJtzHb-10">
          <mxGeometry relative="1" as="geometry" />
        </mxCell>
      </root>
    </mxGraphModel>
  </diagram>
</mxfile>
